<?xml version="1.0" encoding="UTF-8"?>
<!DOCTYPE svg PUBLIC "-//W3C//DTD SVG 1.1//EN" "http://www.w3.org/Graphics/SVG/1.1/DTD/svg11.dtd">
<!-- Creator: CorelDRAW 2018 (64-Bit) -->
<svg xmlns="http://www.w3.org/2000/svg" xml:space="preserve" width="130.133mm" height="111.09mm" version="1.1" style="shape-rendering:geometricPrecision; text-rendering:geometricPrecision; image-rendering:optimizeQuality; fill-rule:evenodd; clip-rule:evenodd"
viewBox="0 0 11760.69 10039.69"
 xmlns:xlink="http://www.w3.org/1999/xlink">
 <defs>
  <style type="text/css">
   <![CDATA[
    .fil0 {fill:#F6F6F6}
   ]]>
  </style>
 </defs>
 <g id="Livello_x0020_1">
  <metadata id="CorelCorpID_0Corel-Layer"/>
  <path class="fil0" d="M11760.69 10039.69l-11760.69 0 0 -9705.51c127.95,-3.68 591.72,-59.34 731.29,-79.02 239.97,-33.85 481.13,-52.11 721.96,-85.89 219.8,-30.84 510.98,-51.64 736.45,-73.74 243.19,-23.83 501.27,-35.01 748.82,-53.85 130.52,-9.93 266.23,-1.06 397.02,-9.34 298.85,-18.93 850.68,26.52 1138.33,68.1 1052.81,152.16 1701.35,443.44 2859.78,307.5 478.84,-56.19 902.98,-176.28 1368.49,-243.69 396.11,-57.37 1085.25,-134.28 1477.44,-137.41 127.48,-1.01 253.84,-13.58 385.75,-13.86 129.52,-0.27 267.6,-3.5 398.45,-7.43 263.27,-7.9 531.98,-5.02 796.91,-5.02l0 10039.17z"/>
 </g>
</svg>
